# Blender 4.4.3
# www.blender.org
o Cone
v 0.000000 -1.000000 -1.000000
v 0.195090 -1.000000 -0.980785
v 0.382683 -1.000000 -0.923880
v 0.555570 -1.000000 -0.831470
v 0.707107 -1.000000 -0.707107
v 0.831470 -1.000000 -0.555570
v 0.923880 -1.000000 -0.382683
v 0.980785 -1.000000 -0.195090
v 1.000000 -1.000000 0.000000
v 0.980785 -1.000000 0.195090
v 0.923880 -1.000000 0.382683
v 0.831470 -1.000000 0.555570
v 0.707107 -1.000000 0.707107
v 0.555570 -1.000000 0.831470
v 0.382683 -1.000000 0.923880
v 0.195090 -1.000000 0.980785
v 0.000000 -1.000000 1.000000
v -0.195090 -1.000000 0.980785
v -0.382683 -1.000000 0.923880
v -0.555570 -1.000000 0.831470
v -0.707107 -1.000000 0.707107
v -0.831470 -1.000000 0.555570
v -0.923880 -1.000000 0.382683
v -0.980785 -1.000000 0.195090
v -1.000000 -1.000000 0.000000
v -0.980785 -1.000000 -0.195090
v -0.923880 -1.000000 -0.382683
v -0.831470 -1.000000 -0.555570
v -0.707107 -1.000000 -0.707107
v -0.555570 -1.000000 -0.831470
v -0.382683 -1.000000 -0.923880
v -0.195090 -1.000000 -0.980785
v -0.165110 -0.692652 -0.830064
v -0.323875 -0.692652 -0.781903
v -0.470194 -0.692652 -0.703694
v -0.598443 -0.692652 -0.598443
v -0.703694 -0.692652 -0.470194
v -0.781903 -0.692652 -0.323875
v -0.830064 -0.692652 -0.165110
v -0.846326 -0.692652 0.000000
v -0.830064 -0.692652 0.165110
v -0.781903 -0.692652 0.323875
v -0.703694 -0.692652 0.470194
v -0.598443 -0.692652 0.598443
v -0.470194 -0.692652 0.703694
v -0.323875 -0.692652 0.781903
v -0.165110 -0.692652 0.830064
v 0.000000 -0.692652 0.846326
v 0.165110 -0.692652 0.830064
v 0.323875 -0.692652 0.781903
v 0.470194 -0.692652 0.703694
v 0.598443 -0.692652 0.598443
v 0.703694 -0.692652 0.470194
v 0.781903 -0.692652 0.323875
v 0.830064 -0.692652 0.165110
v 0.846326 -0.692652 0.000000
v 0.830064 -0.692652 -0.165110
v 0.781903 -0.692652 -0.323875
v 0.703694 -0.692652 -0.470194
v 0.598443 -0.692652 -0.598443
v 0.470194 -0.692652 -0.703694
v 0.323875 -0.692652 -0.781903
v 0.165110 -0.692652 -0.830064
v 0.000000 -0.692652 -0.846326
vn 0.2599 0.4455 -0.8567
vn 0.4220 0.4455 -0.7896
vn 0.5680 0.4455 -0.6921
vn 0.6921 0.4455 -0.5680
vn 0.7896 0.4455 -0.4220
vn 0.8567 0.4455 -0.2599
vn 0.8910 0.4455 -0.0878
vn 0.8910 0.4455 0.0878
vn 0.8567 0.4455 0.2599
vn 0.7896 0.4455 0.4220
vn 0.6921 0.4455 0.5680
vn 0.5680 0.4455 0.6921
vn 0.4220 0.4455 0.7896
vn 0.2599 0.4455 0.8567
vn 0.0878 0.4455 0.8910
vn -0.0878 0.4455 0.8910
vn -0.2599 0.4455 0.8567
vn -0.4220 0.4455 0.7896
vn -0.5680 0.4455 0.6921
vn -0.6921 0.4455 0.5680
vn -0.7896 0.4455 0.4220
vn -0.8567 0.4455 0.2599
vn -0.8910 0.4455 0.0878
vn -0.8910 0.4455 -0.0878
vn -0.8567 0.4455 -0.2599
vn -0.7896 0.4455 -0.4220
vn -0.6921 0.4455 -0.5680
vn -0.5680 0.4455 -0.6921
vn -0.4220 0.4455 -0.7896
vn -0.2599 0.4455 -0.8567
vn -0.0000 -1.0000 -0.0000
vn 0.0878 0.4455 -0.8910
vn -0.0000 1.0000 -0.0000
vn -0.0878 0.4455 -0.8910
vt 0.296822 0.485388
vt 0.289626 0.449215
vt 0.327730 0.437657
vt 0.341844 0.471731
vt 0.362846 0.418887
vt 0.383337 0.449553
vt 0.393626 0.393626
vt 0.419706 0.419706
vt 0.418887 0.362846
vt 0.449553 0.383337
vt 0.437657 0.327730
vt 0.471731 0.341844
vt 0.437657 0.327730
vt 0.449215 0.289626
vt 0.485388 0.296822
vt 0.453118 0.250000
vt 0.490000 0.250000
vt 0.449215 0.210374
vt 0.485388 0.203178
vt 0.449215 0.210374
vt 0.437657 0.172270
vt 0.471731 0.158156
vt 0.437657 0.172270
vt 0.418887 0.137154
vt 0.449553 0.116663
vt 0.418887 0.137154
vt 0.393626 0.106374
vt 0.419706 0.080294
vt 0.393626 0.106374
vt 0.362846 0.081113
vt 0.383337 0.050447
vt 0.327730 0.062343
vt 0.341844 0.028269
vt 0.327730 0.062343
vt 0.289626 0.050785
vt 0.296822 0.014612
vt 0.289626 0.050785
vt 0.250000 0.046882
vt 0.250000 0.010000
vt 0.250000 0.046882
vt 0.210374 0.050785
vt 0.203178 0.014612
vt 0.210374 0.050785
vt 0.172270 0.062343
vt 0.158156 0.028269
vt 0.172270 0.062343
vt 0.137154 0.081113
vt 0.116663 0.050447
vt 0.137154 0.081113
vt 0.106374 0.106374
vt 0.080294 0.080294
vt 0.106374 0.106374
vt 0.081113 0.137154
vt 0.050447 0.116663
vt 0.062343 0.172270
vt 0.028269 0.158156
vt 0.062343 0.172270
vt 0.050785 0.210374
vt 0.014612 0.203178
vt 0.050785 0.210374
vt 0.046882 0.250000
vt 0.010000 0.250000
vt 0.046882 0.250000
vt 0.050785 0.289626
vt 0.014612 0.296822
vt 0.050785 0.289626
vt 0.062343 0.327730
vt 0.028269 0.341844
vt 0.062343 0.327730
vt 0.081113 0.362846
vt 0.050447 0.383337
vt 0.081113 0.362846
vt 0.106374 0.393626
vt 0.080294 0.419706
vt 0.106374 0.393626
vt 0.137154 0.418887
vt 0.116663 0.449553
vt 0.172270 0.437657
vt 0.158156 0.471731
vt 0.172270 0.437657
vt 0.210374 0.449215
vt 0.203178 0.485388
vt 0.750000 0.490000
vt 0.796822 0.485388
vt 0.841844 0.471731
vt 0.883337 0.449553
vt 0.919706 0.419706
vt 0.949553 0.383337
vt 0.971731 0.341844
vt 0.985388 0.296822
vt 0.990000 0.250000
vt 0.985388 0.203178
vt 0.971731 0.158156
vt 0.949553 0.116663
vt 0.919706 0.080294
vt 0.883337 0.050447
vt 0.841844 0.028269
vt 0.796822 0.014612
vt 0.750000 0.010000
vt 0.703178 0.014612
vt 0.658156 0.028269
vt 0.616663 0.050447
vt 0.580294 0.080294
vt 0.550447 0.116663
vt 0.528269 0.158156
vt 0.514612 0.203178
vt 0.510000 0.250000
vt 0.514612 0.296822
vt 0.528269 0.341844
vt 0.550447 0.383337
vt 0.580294 0.419706
vt 0.616663 0.449553
vt 0.658156 0.471731
vt 0.703178 0.485388
vt 0.250000 0.490000
vt 0.250000 0.453118
s 0
f 2/1/1 63/2/1 62/3/1 3/4/1
f 3/4/2 62/3/2 61/5/2 4/6/2
f 4/6/3 61/5/3 60/7/3 5/8/3
f 5/8/4 60/7/4 59/9/4 6/10/4
f 6/10/5 59/9/5 58/11/5 7/12/5
f 7/12/6 58/13/6 57/14/6 8/15/6
f 8/15/7 57/14/7 56/16/7 9/17/7
f 9/17/8 56/16/8 55/18/8 10/19/8
f 10/19/9 55/20/9 54/21/9 11/22/9
f 11/22/10 54/23/10 53/24/10 12/25/10
f 12/25/11 53/26/11 52/27/11 13/28/11
f 13/28/12 52/29/12 51/30/12 14/31/12
f 14/31/13 51/30/13 50/32/13 15/33/13
f 15/33/14 50/34/14 49/35/14 16/36/14
f 16/36/15 49/37/15 48/38/15 17/39/15
f 17/39/16 48/40/16 47/41/16 18/42/16
f 18/42/17 47/43/17 46/44/17 19/45/17
f 19/45/18 46/46/18 45/47/18 20/48/18
f 20/48/19 45/49/19 44/50/19 21/51/19
f 21/51/20 44/52/20 43/53/20 22/54/20
f 22/54/21 43/53/21 42/55/21 23/56/21
f 23/56/22 42/57/22 41/58/22 24/59/22
f 24/59/23 41/60/23 40/61/23 25/62/23
f 25/62/24 40/63/24 39/64/24 26/65/24
f 26/65/25 39/66/25 38/67/25 27/68/25
f 27/68/26 38/69/26 37/70/26 28/71/26
f 28/71/27 37/72/27 36/73/27 29/74/27
f 29/74/28 36/75/28 35/76/28 30/77/28
f 30/77/29 35/76/29 34/78/29 31/79/29
f 31/79/30 34/80/30 33/81/30 32/82/30
f 1/83/31 2/84/31 3/85/31 4/86/31 5/87/31 6/88/31 7/89/31 8/90/31 9/91/31 10/92/31 11/93/31 12/94/31 13/95/31 14/96/31 15/97/31 16/98/31 17/99/31 18/100/31 19/101/31 20/102/31 21/103/31 22/104/31 23/105/31 24/106/31 25/107/31 26/108/31 27/109/31 28/110/31 29/111/31 30/112/31 31/113/31 32/114/31
f 1/115/32 64/116/32 63/2/32 2/1/32
f 33/81/33 34/80/33 35/76/33 36/75/33 37/72/33 38/69/33 39/66/33 40/63/33 41/60/33 42/57/33 43/53/33 44/52/33 45/49/33 46/46/33 47/43/33 48/40/33 49/37/33 50/34/33 51/30/33 52/29/33 53/26/33 54/23/33 55/20/33 56/16/33 57/14/33 58/13/33 59/9/33 60/7/33 61/5/33 62/3/33 63/2/33 64/116/33
f 32/82/34 33/81/34 64/116/34 1/115/34
